<svg width="163" height="40" viewBox="0 0 163 40" fill="none" xmlns="http://www.w3.org/2000/svg">
<g clip-path="url(#clip0_5_120)">
<path d="M2.5 37.1386H11.73V22.359H23.27V37.1386H32.5V14.536L17.5 3.13925L2.5 14.536V37.1386ZM0 39.65V13.2803L17.5 0L35 13.2803V39.65H20.77V24.8704H14.23V39.65H0Z" fill="#FC8416"/>
<path d="M56.376 20.2964C56.984 20.394 57.536 20.6461 58.032 21.0528C58.544 21.4595 58.944 21.9637 59.232 22.5656C59.536 23.1675 59.688 23.81 59.688 24.4932C59.688 25.3553 59.472 26.1361 59.04 26.8356C58.608 27.5188 57.976 28.0637 57.144 28.4704C56.328 28.8608 55.36 29.056 54.24 29.056H48V12.0492H54C55.136 12.0492 56.104 12.2444 56.904 12.6348C57.704 13.0089 58.304 13.5213 58.704 14.172C59.104 14.8227 59.304 15.5547 59.304 16.368C59.304 17.3765 59.032 18.2143 58.488 18.8812C57.96 19.5319 57.256 20.0036 56.376 20.2964ZM50.184 19.3936H53.856C54.88 19.3936 55.672 19.1496 56.232 18.6616C56.792 18.1736 57.072 17.4985 57.072 16.6364C57.072 15.7743 56.792 15.0992 56.232 14.6112C55.672 14.1232 54.864 13.8792 53.808 13.8792H50.184V19.3936ZM54.048 27.226C55.136 27.226 55.984 26.9657 56.592 26.4452C57.2 25.9247 57.504 25.2008 57.504 24.2736C57.504 23.3301 57.184 22.59 56.544 22.0532C55.904 21.5001 55.048 21.2236 53.976 21.2236H50.184V27.226H54.048ZM74.7188 21.858C74.7188 22.2809 74.6948 22.7283 74.6468 23.2H64.1348C64.2148 24.5176 64.6548 25.5505 65.4548 26.2988C66.2708 27.0308 67.2548 27.3968 68.4068 27.3968C69.3508 27.3968 70.1348 27.1772 70.7588 26.738C71.3988 26.2825 71.8468 25.6807 72.1028 24.9324H74.4548C74.1028 26.2175 73.3988 27.2667 72.3428 28.08C71.2868 28.8771 69.9748 29.2756 68.4068 29.2756C67.1588 29.2756 66.0388 28.9909 65.0468 28.4216C64.0708 27.8523 63.3028 27.0471 62.7428 26.006C62.1828 24.9487 61.9028 23.7287 61.9028 22.346C61.9028 20.9633 62.1748 19.7515 62.7188 18.7104C63.2628 17.6693 64.0228 16.8723 64.9988 16.3192C65.9908 15.7499 67.1268 15.4652 68.4068 15.4652C69.6548 15.4652 70.7588 15.7417 71.7188 16.2948C72.6788 16.8479 73.4148 17.6124 73.9268 18.5884C74.4548 19.5481 74.7188 20.638 74.7188 21.858ZM72.4628 21.3944C72.4628 20.5485 72.2788 19.8247 71.9108 19.2228C71.5428 18.6047 71.0388 18.1411 70.3988 17.832C69.7748 17.5067 69.0788 17.344 68.3108 17.344C67.2068 17.344 66.2628 17.7019 65.4788 18.4176C64.7108 19.1333 64.2708 20.1256 64.1588 21.3944H72.4628ZM79.7856 17.8564C80.1696 17.0919 80.7136 16.4981 81.4176 16.0752C82.1376 15.6523 83.0096 15.4408 84.0336 15.4408V17.7344H83.4576C81.0096 17.7344 79.7856 19.0845 79.7856 21.7848V29.056H77.6016V15.6848H79.7856V17.8564ZM85.7387 22.3216C85.7387 20.9552 86.0107 19.7596 86.5547 18.7348C87.0987 17.6937 87.8427 16.8885 88.7867 16.3192C89.7467 15.7499 90.8107 15.4652 91.9787 15.4652C93.1307 15.4652 94.1307 15.7173 94.9787 16.2216C95.8267 16.7259 96.4587 17.3603 96.8747 18.1248V15.6848H99.0827V29.056H96.8747V26.5672C96.4427 27.348 95.7947 27.9987 94.9307 28.5192C94.0827 29.0235 93.0907 29.2756 91.9547 29.2756C90.7867 29.2756 89.7307 28.9828 88.7867 28.3972C87.8427 27.8116 87.0987 26.9901 86.5547 25.9328C86.0107 24.8755 85.7387 23.6717 85.7387 22.3216ZM96.8747 22.346C96.8747 21.3375 96.6747 20.4591 96.2747 19.7108C95.8747 18.9625 95.3307 18.3932 94.6427 18.0028C93.9707 17.5961 93.2267 17.3928 92.4107 17.3928C91.5947 17.3928 90.8507 17.588 90.1787 17.9784C89.5067 18.3688 88.9707 18.9381 88.5707 19.6864C88.1707 20.4347 87.9707 21.3131 87.9707 22.3216C87.9707 23.3464 88.1707 24.2411 88.5707 25.0056C88.9707 25.7539 89.5067 26.3313 90.1787 26.738C90.8507 27.1284 91.5947 27.3236 92.4107 27.3236C93.2267 27.3236 93.9707 27.1284 94.6427 26.738C95.3307 26.3313 95.8747 25.7539 96.2747 25.0056C96.6747 24.2411 96.8747 23.3545 96.8747 22.346ZM109.181 15.4408C110.781 15.4408 112.077 15.9369 113.069 16.9292C114.061 17.9052 114.557 19.3204 114.557 21.1748V29.056H112.397V21.492C112.397 20.1581 112.069 19.1415 111.413 18.442C110.757 17.7263 109.861 17.3684 108.725 17.3684C107.573 17.3684 106.653 17.7344 105.965 18.4664C105.293 19.1984 104.957 20.2639 104.957 21.6628V29.056H102.773V15.6848H104.957V17.588C105.389 16.9048 105.973 16.3761 106.709 16.002C107.461 15.6279 108.285 15.4408 109.181 15.4408ZM117.309 22.3216C117.309 20.9552 117.581 19.7596 118.125 18.7348C118.669 17.6937 119.413 16.8885 120.357 16.3192C121.317 15.7499 122.389 15.4652 123.573 15.4652C124.597 15.4652 125.549 15.7092 126.429 16.1972C127.309 16.6689 127.981 17.2952 128.445 18.076V11H130.653V29.056H128.445V26.5428C128.013 27.3399 127.373 27.9987 126.525 28.5192C125.677 29.0235 124.685 29.2756 123.549 29.2756C122.381 29.2756 121.317 28.9828 120.357 28.3972C119.413 27.8116 118.669 26.9901 118.125 25.9328C117.581 24.8755 117.309 23.6717 117.309 22.3216ZM128.445 22.346C128.445 21.3375 128.245 20.4591 127.845 19.7108C127.445 18.9625 126.901 18.3932 126.213 18.0028C125.541 17.5961 124.797 17.3928 123.981 17.3928C123.165 17.3928 122.421 17.588 121.749 17.9784C121.077 18.3688 120.541 18.9381 120.141 19.6864C119.741 20.4347 119.541 21.3131 119.541 22.3216C119.541 23.3464 119.741 24.2411 120.141 25.0056C120.541 25.7539 121.077 26.3313 121.749 26.738C122.421 27.1284 123.165 27.3236 123.981 27.3236C124.797 27.3236 125.541 27.1284 126.213 26.738C126.901 26.3313 127.445 25.7539 127.845 25.0056C128.245 24.2411 128.445 23.3545 128.445 22.346ZM133.528 22.3216C133.528 20.9552 133.8 19.7596 134.344 18.7348C134.888 17.6937 135.632 16.8885 136.576 16.3192C137.536 15.7499 138.6 15.4652 139.768 15.4652C140.92 15.4652 141.92 15.7173 142.768 16.2216C143.616 16.7259 144.248 17.3603 144.664 18.1248V15.6848H146.872V29.056H144.664V26.5672C144.232 27.348 143.584 27.9987 142.72 28.5192C141.872 29.0235 140.88 29.2756 139.744 29.2756C138.576 29.2756 137.52 28.9828 136.576 28.3972C135.632 27.8116 134.888 26.9901 134.344 25.9328C133.8 24.8755 133.528 23.6717 133.528 22.3216ZM144.664 22.346C144.664 21.3375 144.464 20.4591 144.064 19.7108C143.664 18.9625 143.12 18.3932 142.432 18.0028C141.76 17.5961 141.016 17.3928 140.2 17.3928C139.384 17.3928 138.64 17.588 137.968 17.9784C137.296 18.3688 136.76 18.9381 136.36 19.6864C135.96 20.4347 135.76 21.3131 135.76 22.3216C135.76 23.3464 135.96 24.2411 136.36 25.0056C136.76 25.7539 137.296 26.3313 137.968 26.738C138.64 27.1284 139.384 27.3236 140.2 27.3236C141.016 27.3236 141.76 27.1284 142.432 26.738C143.12 26.3313 143.664 25.7539 144.064 25.0056C144.464 24.2411 144.664 23.3545 144.664 22.346Z" fill="#FC8416"/>
</g>
<defs>
<clipPath id="clip0_5_120">
<rect width="163" height="39.65" fill="white"/>
</clipPath>
</defs>
</svg>
