<svg width="395" height="177" viewBox="0 0 395 177" fill="none" xmlns="http://www.w3.org/2000/svg">
<path d="M39.104 104.136C39.5307 104.349 39.8507 104.627 40.064 104.968C40.32 105.309 40.448 105.8 40.448 106.44C40.448 107.251 40.128 107.912 39.488 108.424C38.8907 108.893 38.1867 109.128 37.376 109.128C36.4373 109.128 35.3707 108.893 34.176 108.424C31.7867 107.357 29.44 105.395 27.136 102.536C24.8747 99.6347 22.144 95.4747 18.944 90.056C16.512 91.9333 14.0373 93.6827 11.52 95.304C11.52 96.2 11.5413 97.2453 11.584 98.44C11.6693 99.592 11.712 100.445 11.712 101C11.7973 103.475 11.84 105.117 11.84 105.928C11.84 106.653 11.6053 107.357 11.136 108.04C10.6667 108.68 9.96267 109 9.024 109C7.65867 109 6.67733 108.787 6.08 108.36C5.48267 107.891 5.12 107.229 4.992 106.376C4.65067 104.243 4.48 102.195 4.48 100.232C4.48 98.0133 4.65067 94.8133 4.992 90.632C5.33333 86.6213 5.504 83.6133 5.504 81.608C5.504 80.84 5.46133 79.7307 5.376 78.28C5.33333 77.128 5.20533 76.0613 4.992 75.08C4.82133 73.7147 4.736 72.7547 4.736 72.2C4.736 70.8347 5.03467 69.8533 5.632 69.256C6.22933 68.6587 7.14667 68.36 8.384 68.36C9.32267 68.36 10.0907 68.6373 10.688 69.192C11.328 69.704 11.6907 70.408 11.776 71.304C11.9893 74.9307 12.096 77.7253 12.096 79.688C12.0533 80.7547 11.968 82.2907 11.84 84.296C11.7547 86.2587 11.6693 87.496 11.584 88.008C13.0347 87.1973 15.872 84.872 20.096 81.032C24.3627 77.1493 27.392 74.0987 29.184 71.88L30.016 70.92C30.6987 70.024 31.2747 69.4053 31.744 69.064C32.2133 68.7227 32.8533 68.552 33.664 68.552C34.4747 68.552 35.2 68.8293 35.84 69.384C36.5227 69.896 36.864 70.5147 36.864 71.24C36.864 72.648 36.1387 74.0773 34.688 75.528C31.1467 79.1973 27.6053 82.6107 24.064 85.768C29.056 95.112 34.0693 101.235 39.104 104.136ZM71.723 100.296C72.5337 100.296 73.131 100.616 73.515 101.256C73.9417 101.853 74.155 102.515 74.155 103.24C74.155 104.136 74.0057 104.776 73.707 105.16C73.451 105.501 72.939 105.864 72.171 106.248C70.379 107.101 68.1603 107.784 65.515 108.296C62.8697 108.808 60.0323 109.064 57.003 109.064C53.2057 109.064 50.411 108.424 48.619 107.144C46.8697 105.864 45.7817 104.328 45.355 102.536C44.971 100.701 44.779 98.312 44.779 95.368C44.779 92.2107 44.907 89.1173 45.163 86.088C45.419 83.016 45.867 79.112 46.507 74.376C46.8057 72.328 47.6163 70.856 48.939 69.96C50.2617 69.0213 51.7123 68.552 53.291 68.552C54.6137 68.552 56.7683 68.5093 59.755 68.424L65.323 68.36C67.627 68.36 69.291 68.424 70.315 68.552C71.595 68.808 72.5337 69.1067 73.131 69.448C73.771 69.7467 74.091 70.28 74.091 71.048C74.091 71.9013 73.7923 72.7333 73.195 73.544C72.6403 74.3547 71.787 74.76 70.635 74.76C69.3123 74.76 67.4137 74.6747 64.939 74.504C62.4643 74.3333 60.6083 74.248 59.371 74.248C58.3043 74.248 57.259 74.312 56.235 74.44C55.0403 74.5253 54.187 74.6747 53.675 74.888C53.163 75.1013 52.8643 75.464 52.779 75.976C52.1817 80.3707 51.883 83.6133 51.883 85.704C52.8643 85.832 53.8243 85.896 54.763 85.896C55.9577 85.896 57.2377 85.832 58.603 85.704C59.9683 85.576 60.843 85.4907 61.227 85.448C63.4883 85.2347 65.4297 85.128 67.051 85.128C67.9897 85.128 68.6937 85.2987 69.163 85.64C69.675 85.9813 69.931 86.4507 69.931 87.048C69.931 87.9867 69.675 88.712 69.163 89.224C68.6937 89.736 67.8403 90.12 66.603 90.376C65.1097 90.6747 63.2537 90.9093 61.035 91.08C58.859 91.2507 56.7257 91.336 54.635 91.336C53.9097 91.336 52.907 91.2933 51.627 91.208C51.499 93.8107 51.435 96.2213 51.435 98.44C51.435 101.469 53.4403 102.984 57.451 102.984C59.5843 102.984 61.355 102.835 62.763 102.536C64.171 102.237 65.7923 101.811 67.627 101.256C69.3337 100.616 70.699 100.296 71.723 100.296ZM84.0595 68.36C84.8702 68.36 85.5955 68.5733 86.2355 69C86.9182 69.4267 87.3235 70.1733 87.4515 71.24C87.9635 74.6107 88.2835 77.9813 88.4115 81.352C88.5822 84.68 88.6675 88.456 88.6675 92.68C88.6675 94.472 88.5182 97.736 88.2195 102.472C90.0968 102.643 91.5475 102.728 92.5715 102.728C93.2968 102.728 94.9395 102.621 97.4995 102.408C98.9928 102.195 100.294 102.088 101.404 102.088C102.428 102.088 103.366 102.195 104.22 102.408C105.073 102.579 105.948 102.877 106.844 103.304C107.74 103.816 108.188 104.605 108.188 105.672C108.188 106.525 107.91 107.293 107.356 107.976C106.844 108.659 106.225 109 105.5 109C104.988 109 104.177 108.915 103.068 108.744C101.062 108.445 99.1422 108.296 97.3075 108.296C96.7102 108.296 96.0275 108.339 95.2595 108.424C94.5342 108.467 94.0008 108.488 93.6595 108.488C92.6355 108.616 91.6115 108.68 90.5875 108.68C88.4968 108.68 86.6195 108.573 84.9555 108.36C84.1022 108.275 83.2488 107.955 82.3955 107.4C81.5422 106.803 81.1155 105.949 81.1155 104.84C81.1155 104.2 81.2008 102.557 81.3715 99.912C81.6702 95.5173 81.8195 92.168 81.8195 89.864C81.8195 88.072 81.7342 86.1947 81.5635 84.232C81.3928 82.2693 81.2862 81.032 81.2435 80.52C80.8595 76.8933 80.6675 73.9067 80.6675 71.56C80.6675 70.4507 80.9235 69.64 81.4355 69.128C81.9902 68.616 82.8648 68.36 84.0595 68.36ZM132.564 109.064C129.748 109.064 127.167 108.723 124.82 108.04C122.473 107.315 120.553 106.269 119.06 104.904C116.329 102.472 114.409 99.8267 113.3 96.968C112.233 94.0667 111.7 90.376 111.7 85.896C111.7 84.9573 111.828 84.0827 112.084 83.272C112.383 82.4187 112.767 81.48 113.236 80.456C113.364 80.1573 113.556 79.688 113.812 79.048C114.111 78.3653 114.303 77.7467 114.388 77.192C115.199 75.6987 116.564 74.2693 118.484 72.904C120.447 71.5387 122.559 70.4507 124.82 69.64C127.081 68.7867 129.065 68.36 130.772 68.36C139.007 68.36 144.895 71.176 148.436 76.808C150.441 80.0933 151.444 83.4 151.444 86.728C151.444 91.0373 150.655 94.8133 149.076 98.056C147.54 101.299 145.407 103.816 142.676 105.608C140.969 106.632 139.22 107.464 137.428 108.104C135.636 108.744 134.015 109.064 132.564 109.064ZM118.356 90.632C118.313 92.9787 118.804 94.92 119.828 96.456C120.895 97.9493 122.559 99.592 124.82 101.384C126.527 102.024 127.721 102.451 128.404 102.664C129.087 102.877 129.833 102.984 130.644 102.984C133.417 102.984 135.871 102.408 138.004 101.256C140.137 100.104 141.78 98.5253 142.932 96.52C144.127 94.5147 144.724 92.2747 144.724 89.8C144.724 86.5573 144.361 83.9973 143.636 82.12C142.911 80.2427 141.609 78.5573 139.732 77.064C138.751 76.2533 137.492 75.656 135.956 75.272C134.463 74.888 132.863 74.696 131.156 74.696C127.06 74.696 123.881 76.1467 121.62 79.048C119.401 81.9067 118.313 85.768 118.356 90.632ZM196.032 68.552C196.629 68.552 197.354 68.9573 198.208 69.768C199.104 70.536 199.552 71.1973 199.552 71.752C199.552 74.3547 199.466 77.9173 199.296 82.44C199.253 83.5493 199.21 84.8933 199.168 86.472C199.125 88.008 199.104 89.8 199.104 91.848C199.104 95.2613 199.146 98.1413 199.232 100.488C199.36 102.792 199.616 104.691 200 106.184C199.957 107.208 199.552 107.955 198.784 108.424C198.016 108.851 197.226 109.064 196.416 109.064C194.752 109.064 193.685 108.488 193.216 107.336C192.789 106.184 192.576 104.456 192.576 102.152C192.576 92.7653 192.682 85.192 192.896 79.432C191.914 80.4987 190.976 81.7147 190.08 83.08C189.184 84.4453 188.074 86.2373 186.752 88.456C185.045 91.3147 183.658 93.4907 182.592 94.984C182.037 95.6667 181.546 96.136 181.12 96.392C180.693 96.648 180.053 96.776 179.2 96.776C178.133 96.776 177.301 96.52 176.704 96.008C176.149 95.496 175.488 94.664 174.72 93.512C173.61 91.848 171.861 88.968 169.472 84.872L166.08 79.304C166.08 86.3013 166.208 92.04 166.464 96.52C166.677 99.2933 166.784 102.216 166.784 105.288C166.784 106.312 166.506 107.187 165.952 107.912C165.44 108.595 164.65 108.936 163.584 108.936C162.432 108.936 161.514 108.723 160.832 108.296C160.192 107.869 159.85 107.229 159.808 106.376C159.85 105.651 159.872 104.456 159.872 102.792C159.872 97.2027 159.786 91.9973 159.616 87.176L159.488 82.696C159.445 81.3733 159.402 79.8373 159.36 78.088C159.317 76.296 159.296 74.3547 159.296 72.264C159.296 69.704 160.682 68.424 163.456 68.424C164.309 68.424 165.162 68.6373 166.016 69.064C166.912 69.4907 167.573 70.1093 168 70.92C168.725 72.456 170.432 75.4 173.12 79.752C175.808 84.0613 177.813 87.1973 179.136 89.16C180.032 88.008 180.842 86.8133 181.568 85.576C182.336 84.3387 182.976 83.272 183.488 82.376C185.066 79.816 186.773 77.4053 188.608 75.144C190.016 73.4373 191.168 71.8587 192.064 70.408C192.49 69.896 193.045 69.4693 193.728 69.128C194.453 68.744 195.221 68.552 196.032 68.552ZM225.041 94.536C223.377 94.536 221.969 94.4933 220.817 94.408C219.708 94.28 218.236 94.088 216.401 93.832L216.337 100.552C216.294 101.704 216.273 103.347 216.273 105.48C216.273 106.589 215.953 107.464 215.313 108.104C214.716 108.701 214.033 109 213.265 109C211.857 109 210.812 108.829 210.129 108.488C209.446 108.104 209.105 107.443 209.105 106.504C209.105 105.267 209.212 103.517 209.425 101.256C209.894 96.392 210.129 91.4 210.129 86.28C210.129 81.5013 209.98 77 209.681 72.776C209.724 72.1787 210.022 71.496 210.577 70.728C211.174 69.96 211.921 69.5333 212.817 69.448C213.798 69.448 215.356 69.2773 217.489 68.936C219.708 68.5947 221.393 68.424 222.545 68.424C226.044 68.424 228.753 68.7653 230.673 69.448C232.636 70.1307 234.598 71.2613 236.561 72.84C238.694 76.168 239.761 78.5147 239.761 79.88C239.761 82.7387 239.185 85.2773 238.033 87.496C236.881 89.7147 235.196 91.4427 232.977 92.68C230.758 93.9173 228.113 94.536 225.041 94.536ZM223.569 73.864C222.204 73.864 221.009 73.9493 219.985 74.12C219.004 74.248 217.809 74.4827 216.401 74.824C216.572 78.7493 216.657 81.608 216.657 83.4C216.657 85.2347 216.593 86.7707 216.465 88.008C218.3 88.392 219.75 88.648 220.817 88.776C221.884 88.8613 223.078 88.904 224.401 88.904C227.558 88.904 229.777 88.0933 231.057 86.472C232.38 84.808 233.041 82.888 233.041 80.712C233.041 80.072 232.849 79.2827 232.465 78.344C232.081 77.4053 231.74 76.7867 231.441 76.488C230.289 75.464 229.158 74.7813 228.049 74.44C226.982 74.056 225.489 73.864 223.569 73.864ZM264.484 68.296C267.214 68.296 269.561 68.6373 271.524 69.32C273.529 70.0027 275.3 71.048 276.836 72.456C279.524 74.888 281.401 77.5547 282.468 80.456C283.577 83.3147 284.132 86.984 284.132 91.464C284.132 92.5733 283.982 93.6187 283.684 94.6C283.385 95.5387 282.937 96.6907 282.34 98.056L281.508 100.104C280.91 101.725 279.673 103.24 277.796 104.648C275.918 106.013 273.806 107.101 271.46 107.912C269.113 108.723 266.98 109.128 265.06 109.128C261.134 109.128 257.7 108.488 254.756 107.208C251.854 105.885 249.444 103.816 247.524 101C246.542 99.5067 245.774 97.8427 245.22 96.008C244.665 94.1307 244.388 92.3387 244.388 90.632C244.388 86.28 245.156 82.504 246.692 79.304C248.27 76.0613 250.446 73.544 253.22 71.752C254.798 70.8133 256.676 70.0027 258.852 69.32C261.07 68.6373 262.948 68.296 264.484 68.296ZM251.172 90.632C251.172 92.8507 251.705 94.92 252.772 96.84C253.881 98.7173 255.353 100.211 257.188 101.32C259.065 102.429 261.113 102.984 263.332 102.984C267.897 102.984 271.374 101.832 273.764 99.528C276.196 97.224 277.412 93.9813 277.412 89.8C277.412 86.5573 277.049 83.9973 276.324 82.12C275.598 80.2427 274.297 78.5573 272.42 77.064C271.396 76.2107 270.286 75.6133 269.092 75.272C267.94 74.888 266.574 74.696 264.996 74.696C262.265 74.696 259.854 75.3787 257.764 76.744C255.673 78.1093 254.052 80.008 252.9 82.44C251.748 84.872 251.172 87.6027 251.172 90.632ZM320.975 98.376C322.596 99.9973 323.876 101.405 324.815 102.6C325.796 103.752 326.287 104.755 326.287 105.608C326.287 106.803 325.946 107.699 325.263 108.296C324.623 108.893 323.812 109.192 322.831 109.192C322.148 109.192 321.444 108.851 320.719 108.168C319.994 107.485 319.332 106.76 318.735 105.992C318.138 105.224 317.754 104.733 317.583 104.52C316.602 103.325 314.682 100.936 311.823 97.352C309.007 93.7253 307.044 91.1227 305.935 89.544C305.594 89.7573 305.082 90.184 304.399 90.824C304.143 91.0373 303.482 91.592 302.415 92.488C301.348 93.3413 300.175 94.216 298.895 95.112C298.895 95.368 298.959 97.288 299.087 100.872C299.172 103.517 299.215 105.245 299.215 106.056C299.215 106.739 298.98 107.443 298.511 108.168C298.042 108.851 297.338 109.192 296.399 109.192C295.034 109.192 294.052 108.957 293.455 108.488C292.858 108.019 292.495 107.336 292.367 106.44C292.026 104.392 291.855 102.365 291.855 100.36C291.855 98.1413 292.026 94.8987 292.367 90.632C292.708 86.6213 292.879 83.6133 292.879 81.608C292.879 80.84 292.836 79.7307 292.751 78.28C292.708 77.128 292.58 76.0613 292.367 75.08C292.196 73.7147 292.111 72.7547 292.111 72.2C292.111 70.8347 292.41 69.8533 293.007 69.256C293.604 68.6587 294.522 68.36 295.759 68.36C296.698 68.36 297.466 68.6373 298.063 69.192C298.703 69.704 299.066 70.408 299.151 71.304C299.364 74.9307 299.471 77.7467 299.471 79.752C299.428 80.7333 299.343 82.12 299.215 83.912C299.13 85.6613 299.044 86.792 298.959 87.304C300.452 86.1947 303.439 83.592 307.919 79.496C312.442 75.3573 315.471 72.5627 317.007 71.112C317.22 70.8987 317.583 70.536 318.095 70.024C318.65 69.4693 319.162 69.0853 319.631 68.872C320.1 68.6587 320.612 68.552 321.167 68.552C321.935 68.552 322.596 68.9147 323.151 69.64C323.748 70.3227 324.047 71.0693 324.047 71.88C324.047 72.3493 323.855 72.8613 323.471 73.416C323.13 73.928 322.511 74.632 321.615 75.528C318.5 78.7707 315.044 82.1413 311.247 85.64C312.228 87.2187 313.85 89.5013 316.111 92.488C318.415 95.432 320.036 97.3947 320.975 98.376Z" fill="#273F3D"/>
<g clip-path="url(#clip0_114_3)">
<path fill-rule="evenodd" clip-rule="evenodd" d="M362.447 -26C364.192 -26 365.605 -24.5931 365.605 -22.8572V38.5986C376.196 40.1216 384.331 49.1922 384.331 60.1567V60.2727C384.331 62.5432 382.482 64.3833 380.201 64.3833H356.057C353.591 64.3833 351.593 66.3722 351.593 68.8264C351.593 71.281 353.591 73.2699 356.057 73.2699H375.621C378.147 73.2699 380.193 75.3074 380.193 77.8215C380.193 80.3358 378.147 82.3734 375.621 82.3734H356.166C353.64 82.3734 351.593 84.4106 351.593 86.9249C351.593 89.4392 353.64 91.4765 356.166 91.4765H375.621C378.147 91.4765 380.193 93.514 380.193 96.0284C380.193 98.5424 378.147 100.58 375.621 100.58H356.384C353.738 100.58 351.593 102.714 351.593 105.348C351.593 107.982 353.738 110.117 356.384 110.117H379.438C379.327 110.121 379.216 110.123 379.105 110.123H380.439C382.61 110.246 384.331 112.036 384.331 114.227V114.343C384.331 125.308 376.196 134.379 365.605 135.902V160.944C365.605 162.68 364.192 164.087 362.447 164.087C362.374 164.087 362.301 164.084 362.229 164.079C362.208 164.081 362.188 164.082 362.167 164.083C362.115 164.085 362.064 164.087 362.012 164.087H317.157C317.106 164.087 317.054 164.085 317.002 164.083C316.951 164.08 316.899 164.076 316.848 164.071C316.796 164.066 316.745 164.06 316.694 164.052C316.643 164.045 316.592 164.036 316.541 164.026C316.491 164.016 316.44 164.005 316.39 163.992C316.34 163.98 316.29 163.966 316.241 163.951C316.191 163.936 316.142 163.92 316.094 163.903C316.045 163.886 315.997 163.867 315.949 163.847C315.901 163.828 315.854 163.807 315.807 163.785C315.761 163.763 315.715 163.74 315.669 163.716C315.623 163.691 315.578 163.666 315.534 163.639C315.49 163.613 315.446 163.586 315.403 163.557C315.36 163.528 315.318 163.499 315.276 163.468C315.235 163.437 315.194 163.406 315.154 163.373C315.114 163.341 315.075 163.307 315.037 163.272C314.999 163.238 314.961 163.202 314.925 163.166C314.888 163.13 314.853 163.092 314.818 163.055C314.783 163.016 314.749 162.977 314.717 162.938C314.684 162.898 314.652 162.857 314.621 162.816C314.591 162.775 314.561 162.733 314.532 162.69C314.503 162.647 314.476 162.604 314.449 162.559C314.423 162.515 314.397 162.471 314.373 162.425C314.348 162.38 314.325 162.334 314.303 162.288C314.281 162.241 314.26 162.194 314.24 162.147C314.221 162.099 314.202 162.051 314.185 162.003C314.167 161.954 314.151 161.905 314.136 161.856C314.121 161.807 314.107 161.757 314.095 161.707C314.082 161.658 314.071 161.607 314.061 161.557C314.051 161.507 314.042 161.456 314.034 161.405C314.027 161.354 314.02 161.303 314.015 161.252C314.01 161.201 314.006 161.149 314.004 161.098C314.001 161.047 314 160.995 314 160.944C314 160.892 314.001 160.841 314.004 160.79C314.006 160.738 314.01 160.687 314.015 160.636C314.02 160.585 314.027 160.534 314.034 160.483C314.042 160.432 314.051 160.381 314.061 160.331C314.071 160.28 314.082 160.23 314.095 160.18C314.107 160.13 314.121 160.081 314.136 160.032C314.151 159.982 314.167 159.933 314.185 159.885C314.202 159.837 314.221 159.789 314.24 159.741C314.26 159.693 314.281 159.646 314.303 159.6C314.325 159.553 314.348 159.508 314.373 159.462C314.397 159.417 314.423 159.372 314.449 159.328C314.476 159.284 314.503 159.24 314.532 159.198C314.561 159.155 314.591 159.113 314.621 159.071C314.652 159.03 314.684 158.99 314.717 158.95C314.749 158.91 314.783 158.871 314.818 158.833C314.853 158.795 314.888 158.758 314.925 158.721C314.961 158.685 314.999 158.65 315.037 158.615C315.075 158.581 315.114 158.547 315.154 158.514C315.194 158.482 315.235 158.45 315.276 158.419C315.318 158.389 315.36 158.359 315.403 158.331C315.446 158.302 315.49 158.275 315.534 158.248C315.578 158.222 315.623 158.196 315.669 158.172C315.715 158.148 315.761 158.125 315.807 158.103C315.854 158.081 315.901 158.06 315.949 158.04C315.997 158.021 316.045 158.002 316.094 157.985C316.142 157.967 316.191 157.951 316.241 157.936C316.29 157.921 316.34 157.908 316.39 157.895C316.44 157.883 316.491 157.871 316.541 157.862C316.592 157.851 316.643 157.843 316.694 157.835C316.745 157.827 316.796 157.821 316.848 157.816C316.899 157.811 316.951 157.807 317.002 157.805C317.054 157.802 317.106 157.801 317.157 157.801H359.29V135.902C348.7 134.379 340.565 125.308 340.565 114.343V114.227C340.565 111.957 342.413 110.117 344.694 110.117H344.844C344.844 110.044 344.843 109.972 344.843 109.9V64.3833H344.694C342.413 64.3833 340.565 62.5432 340.565 60.2727V60.1567C340.565 49.1922 348.7 40.1216 359.29 38.5986V-22.8572C359.29 -24.5931 360.704 -26 362.447 -26ZM380.439 110.123H386.726C386.861 110.123 386.997 110.12 387.132 110.114C387.267 110.107 387.402 110.097 387.537 110.084C387.672 110.07 387.806 110.054 387.94 110.034C388.074 110.014 388.207 109.992 388.34 109.965C388.473 109.939 388.605 109.909 388.736 109.877C388.868 109.844 388.998 109.808 389.128 109.769C389.257 109.73 389.386 109.687 389.513 109.642C389.641 109.597 389.767 109.548 389.892 109.496C390.017 109.445 390.141 109.39 390.263 109.332C390.386 109.275 390.507 109.215 390.626 109.151C390.746 109.087 390.863 109.021 390.98 108.952C391.096 108.882 391.21 108.81 391.323 108.735C391.435 108.661 391.546 108.583 391.655 108.503C391.764 108.422 391.87 108.339 391.975 108.254C392.08 108.168 392.182 108.08 392.282 107.99C392.383 107.899 392.481 107.806 392.577 107.711C392.672 107.616 392.766 107.518 392.857 107.418C392.947 107.319 393.036 107.216 393.122 107.112C393.208 107.008 393.291 106.902 393.372 106.793C393.452 106.685 393.53 106.575 393.606 106.463C393.681 106.351 393.753 106.237 393.823 106.122C393.892 106.006 393.959 105.889 394.023 105.77C394.087 105.651 394.148 105.53 394.206 105.408C394.263 105.287 394.318 105.164 394.37 105.039C394.422 104.915 394.471 104.789 394.516 104.662C394.562 104.535 394.604 104.407 394.644 104.278C394.683 104.149 394.719 104.019 394.752 103.888C394.785 103.758 394.815 103.626 394.841 103.494C394.868 103.362 394.891 103.229 394.911 103.096C394.93 102.963 394.947 102.828 394.96 102.694C394.973 102.56 394.983 102.426 394.99 102.291C394.997 102.156 395 102.022 395 101.887V72.6278C395 72.4931 394.997 72.3584 394.99 72.224C394.983 72.0893 394.973 71.9549 394.96 71.8208C394.947 71.6864 394.93 71.5527 394.911 71.4196C394.891 71.2862 394.868 71.1535 394.841 71.0211C394.815 70.889 394.785 70.7575 394.752 70.6268C394.719 70.496 394.683 70.3662 394.644 70.2371C394.605 70.108 394.562 69.9801 394.516 69.8533C394.471 69.7264 394.422 69.6006 394.37 69.4761C394.318 69.3515 394.263 69.2283 394.206 69.1064C394.148 68.9845 394.087 68.8642 394.023 68.7453C393.959 68.6267 393.892 68.5094 393.823 68.3937C393.753 68.278 393.681 68.164 393.606 68.0523C393.53 67.9399 393.452 67.8298 393.372 67.7217C393.291 67.6133 393.208 67.5072 393.122 67.4027C393.036 67.2985 392.947 67.1967 392.857 67.0968C392.766 66.9969 392.672 66.8993 392.577 66.804C392.481 66.7087 392.383 66.6157 392.282 66.525C392.182 66.4347 392.08 66.3466 391.975 66.2612C391.87 66.1757 391.764 66.0926 391.655 66.0124C391.546 65.9323 391.435 65.8547 391.323 65.7798C391.21 65.7049 391.096 65.6326 390.98 65.5636C390.863 65.4943 390.746 65.4276 390.626 65.3641C390.507 65.3006 390.386 65.24 390.263 65.1824C390.141 65.1249 390.017 65.0701 389.892 65.0185C389.767 64.9669 389.641 64.9186 389.513 64.8732C389.386 64.8276 389.257 64.7855 389.128 64.7464C388.998 64.7073 388.868 64.6711 388.736 64.6383C388.605 64.6058 388.473 64.5762 388.34 64.5499C388.207 64.5236 388.074 64.5006 387.94 64.4809C387.806 64.4612 387.672 64.4444 387.537 64.4313C387.402 64.4181 387.267 64.4083 387.132 64.4014C386.997 64.3948 386.861 64.3915 386.726 64.3915H379.105C379.24 64.3915 379.376 64.3948 379.511 64.4014C379.646 64.4083 379.781 64.4181 379.916 64.4313C380.05 64.4444 380.185 64.4612 380.319 64.4809C380.453 64.5006 380.586 64.5236 380.719 64.5499C380.852 64.5762 380.984 64.6058 381.115 64.6383C381.247 64.6711 381.377 64.7073 381.507 64.7464C381.636 64.7855 381.765 64.8276 381.892 64.8732C382.02 64.9186 382.146 64.9669 382.271 65.0185C382.396 65.0701 382.52 65.1249 382.643 65.1824C382.765 65.24 382.886 65.3006 383.005 65.3641C383.125 65.4276 383.243 65.4943 383.359 65.5636C383.475 65.6326 383.589 65.7049 383.702 65.7798C383.814 65.8547 383.925 65.9323 384.034 66.0124C384.142 66.0929 384.249 66.1757 384.354 66.2612C384.459 66.3466 384.561 66.4347 384.662 66.525C384.762 66.6157 384.86 66.7087 384.956 66.804C385.051 66.8993 385.145 66.9969 385.236 67.0968C385.327 67.1967 385.415 67.2988 385.501 67.403C385.587 67.5072 385.67 67.6133 385.751 67.7217C385.831 67.8298 385.909 67.9399 385.985 68.0523C386.06 68.164 386.132 68.278 386.202 68.3937C386.272 68.5094 386.338 68.6267 386.402 68.7453C386.466 68.8642 386.527 68.9845 386.585 69.1064C386.642 69.2283 386.697 69.3515 386.749 69.4761C386.801 69.6006 386.85 69.7264 386.895 69.8533C386.941 69.9801 386.983 70.108 387.023 70.2371C387.062 70.3662 387.098 70.496 387.131 70.6268C387.164 70.7575 387.194 70.889 387.22 71.0211C387.246 71.1535 387.27 71.2862 387.29 71.4196C387.309 71.5527 387.326 71.6864 387.339 71.8208C387.352 71.9549 387.362 72.0893 387.369 72.224C387.376 72.3584 387.379 72.4931 387.379 72.6278V101.887C387.379 102.022 387.376 102.156 387.369 102.291C387.362 102.426 387.352 102.56 387.339 102.694C387.326 102.828 387.309 102.963 387.29 103.096C387.27 103.229 387.246 103.362 387.22 103.494C387.194 103.626 387.164 103.758 387.131 103.888C387.098 104.019 387.062 104.149 387.023 104.278C386.984 104.407 386.941 104.535 386.895 104.662C386.85 104.789 386.801 104.915 386.749 105.039C386.697 105.164 386.642 105.287 386.585 105.408C386.527 105.53 386.466 105.651 386.402 105.77C386.338 105.889 386.272 106.006 386.202 106.122C386.132 106.237 386.06 106.351 385.985 106.463C385.909 106.575 385.831 106.685 385.751 106.793C385.67 106.902 385.587 107.008 385.501 107.112C385.415 107.216 385.327 107.319 385.236 107.418C385.145 107.518 385.051 107.616 384.956 107.711C384.86 107.806 384.762 107.899 384.662 107.99C384.561 108.08 384.459 108.168 384.354 108.254C384.249 108.339 384.142 108.422 384.034 108.503C383.925 108.583 383.814 108.661 383.702 108.735C383.589 108.81 383.475 108.882 383.359 108.952C383.243 109.021 383.125 109.087 383.005 109.151C382.886 109.215 382.765 109.275 382.643 109.332C382.52 109.39 382.396 109.445 382.271 109.496C382.146 109.548 382.02 109.597 381.892 109.642C381.765 109.687 381.636 109.73 381.507 109.769C381.377 109.808 381.247 109.844 381.115 109.877C380.984 109.909 380.852 109.939 380.719 109.965C380.586 109.992 380.453 110.014 380.319 110.034C380.185 110.054 380.05 110.07 379.916 110.084C379.781 110.097 379.646 110.107 379.511 110.114C379.487 110.115 379.462 110.116 379.438 110.117H380.201C380.281 110.117 380.361 110.119 380.439 110.123Z" fill="#292929"/>
<path d="M317.137 157.843C318.87 157.843 320.274 159.241 320.274 160.965V173.878C320.274 175.603 318.87 177 317.137 177C315.404 177 314 175.603 314 173.878V160.965C314 159.241 315.404 157.843 317.137 157.843Z" fill="#292929"/>
</g>
<defs>
<clipPath id="clip0_114_3">
<rect width="81" height="203" fill="white" transform="translate(314 -26)"/>
</clipPath>
</defs>
</svg>
