<svg width="431" height="124" viewBox="0 0 431 124" fill="none" xmlns="http://www.w3.org/2000/svg">
<path d="M90.816 60L82.688 50.048V60H78.208V37.664H82.688V47.68L90.816 37.664H96.224L87.008 48.736L96.48 60H90.816ZM103.907 41.28V46.88H111.427V50.432H103.907V56.352H112.387V60H99.4268V37.632H112.387V41.28H103.907ZM120.938 56.448H128.298V60H116.458V37.664H120.938V56.448ZM141.514 60.224C139.423 60.224 137.503 59.7333 135.754 58.752C134.004 57.7707 132.618 56.416 131.594 54.688C130.57 52.9387 130.058 50.9653 130.058 48.768C130.058 46.592 130.57 44.64 131.594 42.912C132.618 41.1627 134.004 39.7973 135.754 38.816C137.503 37.8347 139.423 37.344 141.514 37.344C143.626 37.344 145.546 37.8347 147.274 38.816C149.023 39.7973 150.399 41.1627 151.402 42.912C152.426 44.64 152.938 46.592 152.938 48.768C152.938 50.9653 152.426 52.9387 151.402 54.688C150.399 56.416 149.023 57.7707 147.274 58.752C145.524 59.7333 143.604 60.224 141.514 60.224ZM141.514 56.224C142.858 56.224 144.042 55.9253 145.066 55.328C146.09 54.7093 146.89 53.8347 147.466 52.704C148.042 51.5733 148.33 50.2613 148.33 48.768C148.33 47.2747 148.042 45.9733 147.466 44.864C146.89 43.7333 146.09 42.8693 145.066 42.272C144.042 41.6747 142.858 41.376 141.514 41.376C140.17 41.376 138.975 41.6747 137.93 42.272C136.906 42.8693 136.106 43.7333 135.53 44.864C134.954 45.9733 134.666 47.2747 134.666 48.768C134.666 50.2613 134.954 51.5733 135.53 52.704C136.106 53.8347 136.906 54.7093 137.93 55.328C138.975 55.9253 140.17 56.224 141.514 56.224ZM180.623 37.664V60H176.143V45.472L170.159 60H166.767L160.751 45.472V60H156.271V37.664H161.359L168.463 54.272L175.567 37.664H180.623ZM201.34 44.576C201.34 45.7707 201.052 46.8907 200.476 47.936C199.921 48.9813 199.036 49.824 197.82 50.464C196.625 51.104 195.11 51.424 193.276 51.424H189.532V60H185.052V37.664H193.276C195.004 37.664 196.476 37.9627 197.692 38.56C198.908 39.1573 199.814 39.9787 200.412 41.024C201.03 42.0693 201.34 43.2533 201.34 44.576ZM193.084 47.808C194.321 47.808 195.238 47.5307 195.836 46.976C196.433 46.4 196.732 45.6 196.732 44.576C196.732 42.4 195.516 41.312 193.084 41.312H189.532V47.808H193.084ZM214.889 60.224C212.798 60.224 210.878 59.7333 209.129 58.752C207.379 57.7707 205.993 56.416 204.969 54.688C203.945 52.9387 203.433 50.9653 203.433 48.768C203.433 46.592 203.945 44.64 204.969 42.912C205.993 41.1627 207.379 39.7973 209.129 38.816C210.878 37.8347 212.798 37.344 214.889 37.344C217.001 37.344 218.921 37.8347 220.649 38.816C222.398 39.7973 223.774 41.1627 224.777 42.912C225.801 44.64 226.313 46.592 226.313 48.768C226.313 50.9653 225.801 52.9387 224.777 54.688C223.774 56.416 222.398 57.7707 220.649 58.752C218.899 59.7333 216.979 60.224 214.889 60.224ZM214.889 56.224C216.233 56.224 217.417 55.9253 218.441 55.328C219.465 54.7093 220.265 53.8347 220.841 52.704C221.417 51.5733 221.705 50.2613 221.705 48.768C221.705 47.2747 221.417 45.9733 220.841 44.864C220.265 43.7333 219.465 42.8693 218.441 42.272C217.417 41.6747 216.233 41.376 214.889 41.376C213.545 41.376 212.35 41.6747 211.305 42.272C210.281 42.8693 209.481 43.7333 208.905 44.864C208.329 45.9733 208.041 47.2747 208.041 48.768C208.041 50.2613 208.329 51.5733 208.905 52.704C209.481 53.8347 210.281 54.7093 211.305 55.328C212.35 55.9253 213.545 56.224 214.889 56.224ZM242.254 60L234.126 50.048V60H229.646V37.664H234.126V47.68L242.254 37.664H247.662L238.446 48.736L247.918 60H242.254ZM258.041 42.816C258.148 40.6827 258.895 39.04 260.281 37.888C261.689 36.7147 263.535 36.128 265.817 36.128C267.375 36.128 268.708 36.4053 269.817 36.96C270.927 37.4933 271.759 38.2293 272.313 39.168C272.889 40.0853 273.177 41.1307 273.177 42.304C273.177 43.648 272.825 44.7893 272.121 45.728C271.439 46.6453 270.617 47.264 269.657 47.584V47.712C270.895 48.096 271.855 48.7787 272.537 49.76C273.241 50.7413 273.593 52 273.593 53.536C273.593 54.816 273.295 55.9573 272.697 56.96C272.121 57.9627 271.257 58.752 270.105 59.328C268.975 59.8827 267.609 60.16 266.009 60.16C263.599 60.16 261.636 59.552 260.121 58.336C258.607 57.12 257.807 55.328 257.721 52.96H262.073C262.116 54.0053 262.468 54.848 263.129 55.488C263.812 56.1067 264.74 56.416 265.913 56.416C267.001 56.416 267.833 56.1173 268.409 55.52C269.007 54.9013 269.305 54.112 269.305 53.152C269.305 51.872 268.9 50.9547 268.089 50.4C267.279 49.8453 266.02 49.568 264.313 49.568H263.385V45.888H264.313C267.343 45.888 268.857 44.8747 268.857 42.848C268.857 41.9307 268.58 41.216 268.025 40.704C267.492 40.192 266.713 39.936 265.689 39.936C264.687 39.936 263.908 40.2133 263.353 40.768C262.82 41.3013 262.511 41.984 262.425 42.816H258.041ZM91.552 79.248V96H88.192V88.872H81.016V96H77.656V79.248H81.016V86.136H88.192V79.248H91.552ZM105.131 92.808H98.4591L97.3551 96H93.8271L99.8511 79.224H103.763L109.787 96H106.235L105.131 92.808ZM104.219 90.12L101.795 83.112L99.3711 90.12H104.219ZM130.303 79.248V96H126.943V85.104L122.455 96H119.911L115.399 85.104V96H112.039V79.248H115.855L121.183 91.704L126.511 79.248H130.303ZM143.129 87.408C144.073 87.584 144.849 88.056 145.457 88.824C146.065 89.592 146.369 90.472 146.369 91.464C146.369 92.36 146.145 93.152 145.697 93.84C145.265 94.512 144.633 95.04 143.801 95.424C142.969 95.808 141.985 96 140.849 96H133.625V79.248H140.537C141.673 79.248 142.649 79.432 143.465 79.8C144.297 80.168 144.921 80.68 145.337 81.336C145.769 81.992 145.985 82.736 145.985 83.568C145.985 84.544 145.721 85.36 145.193 86.016C144.681 86.672 143.993 87.136 143.129 87.408ZM136.985 86.16H140.057C140.857 86.16 141.473 85.984 141.905 85.632C142.337 85.264 142.553 84.744 142.553 84.072C142.553 83.4 142.337 82.88 141.905 82.512C141.473 82.144 140.857 81.96 140.057 81.96H136.985V86.16ZM140.369 93.264C141.185 93.264 141.817 93.072 142.265 92.688C142.729 92.304 142.961 91.76 142.961 91.056C142.961 90.336 142.721 89.776 142.241 89.376C141.761 88.96 141.113 88.752 140.297 88.752H136.985V93.264H140.369ZM159.319 92.808H152.647L151.543 96H148.015L154.039 79.224H157.951L163.975 96H160.423L159.319 92.808ZM158.407 90.12L155.983 83.112L153.559 90.12H158.407ZM177.626 79.248V81.96H173.162V96H169.802V81.96H165.338V79.248H177.626ZM190.35 92.808H183.678L182.574 96H179.046L185.07 79.224H188.982L195.006 96H191.454L190.35 92.808ZM189.438 90.12L187.014 83.112L184.59 90.12H189.438ZM211.586 96H208.226L200.618 84.504V96H197.258V79.224H200.618L208.226 90.744V79.224H211.586V96ZM226.481 79.248C228.241 79.248 229.785 79.592 231.113 80.28C232.457 80.968 233.489 81.952 234.209 83.232C234.945 84.496 235.313 85.968 235.313 87.648C235.313 89.328 234.945 90.8 234.209 92.064C233.489 93.312 232.457 94.28 231.113 94.968C229.785 95.656 228.241 96 226.481 96H220.625V79.248H226.481ZM226.361 93.144C228.121 93.144 229.481 92.664 230.441 91.704C231.401 90.744 231.881 89.392 231.881 87.648C231.881 85.904 231.401 84.544 230.441 83.568C229.481 82.576 228.121 82.08 226.361 82.08H223.985V93.144H226.361ZM248.1 92.808H241.428L240.324 96H236.796L242.82 79.224H246.732L252.756 96H249.204L248.1 92.808ZM247.188 90.12L244.764 83.112L242.34 90.12H247.188ZM269.336 96H265.976L258.368 84.504V96H255.008V79.224H258.368L265.976 90.744V79.224H269.336V96ZM288.647 92.808H281.975L280.871 96H277.343L283.367 79.224H287.279L293.303 96H289.751L288.647 92.808ZM287.735 90.12L285.311 83.112L282.887 90.12H287.735ZM304.194 96L300.498 89.472H298.914V96H295.554V79.248H301.842C303.138 79.248 304.242 79.48 305.154 79.944C306.066 80.392 306.746 81.008 307.194 81.792C307.658 82.56 307.89 83.424 307.89 84.384C307.89 85.488 307.57 86.488 306.93 87.384C306.29 88.264 305.338 88.872 304.074 89.208L308.082 96H304.194ZM298.914 86.952H301.722C302.634 86.952 303.314 86.736 303.762 86.304C304.21 85.856 304.434 85.24 304.434 84.456C304.434 83.688 304.21 83.096 303.762 82.68C303.314 82.248 302.634 82.032 301.722 82.032H298.914V86.952ZM314.241 79.248V89.616C314.241 90.752 314.537 91.624 315.129 92.232C315.721 92.824 316.553 93.12 317.625 93.12C318.713 93.12 319.553 92.824 320.145 92.232C320.737 91.624 321.033 90.752 321.033 89.616V79.248H324.417V89.592C324.417 91.016 324.105 92.224 323.481 93.216C322.873 94.192 322.049 94.928 321.009 95.424C319.985 95.92 318.841 96.168 317.577 96.168C316.329 96.168 315.193 95.92 314.169 95.424C313.161 94.928 312.361 94.192 311.769 93.216C311.177 92.224 310.881 91.016 310.881 89.592V79.248H314.241ZM333.448 96.168C332.28 96.168 331.224 95.968 330.28 95.568C329.352 95.168 328.616 94.592 328.072 93.84C327.528 93.088 327.248 92.2 327.232 91.176H330.832C330.88 91.864 331.12 92.408 331.552 92.808C332 93.208 332.608 93.408 333.376 93.408C334.16 93.408 334.776 93.224 335.224 92.856C335.672 92.472 335.896 91.976 335.896 91.368C335.896 90.872 335.744 90.464 335.44 90.144C335.136 89.824 334.752 89.576 334.288 89.4C333.84 89.208 333.216 89 332.416 88.776C331.328 88.456 330.44 88.144 329.752 87.84C329.08 87.52 328.496 87.048 328 86.424C327.52 85.784 327.28 84.936 327.28 83.88C327.28 82.888 327.528 82.024 328.024 81.288C328.52 80.552 329.216 79.992 330.112 79.608C331.008 79.208 332.032 79.008 333.184 79.008C334.912 79.008 336.312 79.432 337.384 80.28C338.472 81.112 339.072 82.28 339.184 83.784H335.488C335.456 83.208 335.208 82.736 334.744 82.368C334.296 81.984 333.696 81.792 332.944 81.792C332.288 81.792 331.76 81.96 331.36 82.296C330.976 82.632 330.784 83.12 330.784 83.76C330.784 84.208 330.928 84.584 331.216 84.888C331.52 85.176 331.888 85.416 332.32 85.608C332.768 85.784 333.392 85.992 334.192 86.232C335.28 86.552 336.168 86.872 336.856 87.192C337.544 87.512 338.136 87.992 338.632 88.632C339.128 89.272 339.376 90.112 339.376 91.152C339.376 92.048 339.144 92.88 338.68 93.648C338.216 94.416 337.536 95.032 336.64 95.496C335.744 95.944 334.68 96.168 333.448 96.168ZM351.368 93.336H356.888V96H348.008V79.248H351.368V93.336ZM362.383 79.248V96H359.023V79.248H362.383ZM371.487 96.168C370.319 96.168 369.263 95.968 368.319 95.568C367.391 95.168 366.655 94.592 366.111 93.84C365.567 93.088 365.287 92.2 365.271 91.176H368.871C368.919 91.864 369.159 92.408 369.591 92.808C370.039 93.208 370.647 93.408 371.415 93.408C372.199 93.408 372.815 93.224 373.263 92.856C373.711 92.472 373.935 91.976 373.935 91.368C373.935 90.872 373.783 90.464 373.479 90.144C373.175 89.824 372.791 89.576 372.327 89.4C371.879 89.208 371.255 89 370.455 88.776C369.367 88.456 368.479 88.144 367.791 87.84C367.119 87.52 366.535 87.048 366.039 86.424C365.559 85.784 365.319 84.936 365.319 83.88C365.319 82.888 365.567 82.024 366.063 81.288C366.559 80.552 367.255 79.992 368.151 79.608C369.047 79.208 370.071 79.008 371.223 79.008C372.951 79.008 374.351 79.432 375.423 80.28C376.511 81.112 377.111 82.28 377.223 83.784H373.527C373.495 83.208 373.247 82.736 372.783 82.368C372.335 81.984 371.735 81.792 370.983 81.792C370.327 81.792 369.799 81.96 369.399 82.296C369.015 82.632 368.823 83.12 368.823 83.76C368.823 84.208 368.967 84.584 369.255 84.888C369.559 85.176 369.927 85.416 370.359 85.608C370.807 85.784 371.431 85.992 372.231 86.232C373.319 86.552 374.207 86.872 374.895 87.192C375.583 87.512 376.175 87.992 376.671 88.632C377.167 89.272 377.415 90.112 377.415 91.152C377.415 92.048 377.183 92.88 376.719 93.648C376.255 94.416 375.575 95.032 374.679 95.496C373.783 95.944 372.719 96.168 371.487 96.168ZM391.728 79.248V81.96H387.264V96H383.904V81.96H379.44V79.248H391.728ZM402.819 96L399.123 89.472H397.539V96H394.179V79.248H400.467C401.763 79.248 402.867 79.48 403.779 79.944C404.691 80.392 405.371 81.008 405.819 81.792C406.283 82.56 406.515 83.424 406.515 84.384C406.515 85.488 406.195 86.488 405.555 87.384C404.915 88.264 403.963 88.872 402.699 89.208L406.707 96H402.819ZM397.539 86.952H400.347C401.259 86.952 401.939 86.736 402.387 86.304C402.835 85.856 403.059 85.24 403.059 84.456C403.059 83.688 402.835 83.096 402.387 82.68C401.939 82.248 401.259 82.032 400.347 82.032H397.539V86.952ZM412.914 79.248V96H409.554V79.248H412.914ZM425.69 96L419.594 88.536V96H416.234V79.248H419.594V86.76L425.69 79.248H429.746L422.834 87.552L429.938 96H425.69Z" fill="#ECECEC"/>
<mask id="mask0_5_112" style="mask-type:luminance" maskUnits="userSpaceOnUse" x="0" y="0" width="49" height="124">
<path d="M49 0H0V124H49V0Z" fill="white"/>
</mask>
<g mask="url(#mask0_5_112)">
<path fill-rule="evenodd" clip-rule="evenodd" d="M29.3077 0C30.3628 0 31.2178 0.859359 31.2178 1.91975V39.4592C37.6245 40.3895 42.5457 45.9302 42.5457 52.6277V52.6986C42.5457 54.0855 41.4275 55.2095 40.0476 55.2095H25.4418C23.9503 55.2095 22.7416 56.4244 22.7416 57.9235C22.7416 59.4229 23.9503 60.6378 25.4418 60.6378H37.277C38.8049 60.6378 40.043 61.8824 40.043 63.418C40.043 64.9539 38.8049 66.1985 37.277 66.1985H25.5076C23.9796 66.1985 22.7416 67.4429 22.7416 68.9788C22.7416 70.5146 23.9796 71.759 25.5076 71.759H37.277C38.8049 71.759 40.043 73.0036 40.043 74.5395C40.043 76.0751 38.8049 77.3198 37.277 77.3198H25.6394C24.0388 77.3198 22.7416 78.6236 22.7416 80.2325C22.7416 81.8414 24.0388 83.1452 25.6394 83.1452H39.5861C39.5188 83.148 39.4517 83.1492 39.3844 83.1492H40.1918C41.5046 83.2243 42.5457 84.3178 42.5457 85.6561V85.727C42.5457 92.4246 37.6245 97.9652 31.2178 98.8955V114.192C31.2178 115.253 30.3628 116.112 29.3077 116.112C29.2634 116.112 29.2192 116.11 29.1755 116.107C29.1629 116.108 29.1505 116.109 29.1379 116.11C29.1068 116.111 29.0756 116.112 29.0444 116.112H1.90995C1.87868 116.112 1.84746 116.111 1.81629 116.11C1.78503 116.108 1.75386 116.106 1.72277 116.103C1.69168 116.1 1.66064 116.096 1.62965 116.091C1.59873 116.087 1.56796 116.081 1.53731 116.075C1.50667 116.069 1.47619 116.062 1.44589 116.054C1.4156 116.047 1.38548 116.039 1.35554 116.029C1.32559 116.02 1.29591 116.01 1.26649 116C1.23707 115.989 1.20792 115.978 1.17903 115.966C1.15014 115.954 1.1216 115.941 1.09342 115.928C1.06514 115.914 1.03721 115.9 1.00963 115.885C0.982065 115.871 0.954885 115.855 0.928106 115.839C0.901228 115.823 0.874795 115.806 0.848803 115.788C0.82281 115.771 0.79726 115.753 0.772144 115.734C0.747117 115.715 0.722493 115.696 0.698253 115.676C0.674103 115.656 0.650434 115.636 0.627256 115.615C0.604158 115.594 0.58155 115.572 0.559417 115.55C0.537284 115.528 0.51573 115.505 0.49474 115.482C0.473756 115.458 0.453343 115.434 0.433493 115.41C0.413733 115.386 0.394543 115.361 0.37593 115.336C0.357318 115.311 0.33931 115.285 0.32192 115.259C0.304531 115.233 0.28781 115.206 0.271737 115.179C0.255667 115.152 0.240254 115.125 0.225502 115.097C0.21075 115.07 0.196704 115.041 0.183359 115.013C0.170005 114.985 0.157359 114.956 0.14542 114.927C0.133481 114.898 0.122242 114.869 0.111702 114.839C0.101162 114.809 0.0913296 114.78 0.0821965 114.75C0.073152 114.719 0.0648472 114.689 0.057298 114.659C0.0496605 114.628 0.0428108 114.598 0.036749 114.567C0.0305985 114.536 0.0252443 114.505 0.0206779 114.474C0.0161113 114.443 0.0122925 114.412 0.00922139 114.38C0.00614224 114.349 0.0038188 114.318 0.00224303 114.286C0.00074768 114.255 0 114.224 0 114.192C0 114.161 0.00074768 114.129 0.00224303 114.098C0.0038188 114.067 0.00614224 114.035 0.00922139 114.004C0.0122925 113.973 0.0161113 113.942 0.0206779 113.911C0.0252443 113.879 0.0305985 113.849 0.036749 113.818C0.0428108 113.787 0.0496605 113.756 0.057298 113.726C0.0648472 113.695 0.073152 113.665 0.0821965 113.635C0.0913296 113.605 0.101162 113.575 0.111702 113.546C0.122242 113.516 0.133481 113.487 0.14542 113.458C0.157359 113.428 0.170005 113.4 0.183359 113.371C0.196704 113.343 0.21075 113.315 0.225502 113.287C0.240254 113.26 0.255666 113.232 0.271737 113.205C0.28781 113.178 0.304531 113.152 0.32192 113.126C0.33931 113.1 0.357318 113.074 0.37593 113.049C0.394543 113.023 0.413733 112.999 0.433493 112.974C0.453343 112.95 0.473756 112.926 0.49474 112.903C0.51573 112.88 0.537284 112.857 0.559417 112.835C0.58155 112.813 0.604158 112.791 0.627256 112.77C0.650434 112.749 0.674103 112.728 0.698253 112.708C0.722395 112.688 0.747029 112.669 0.772144 112.65C0.79726 112.631 0.82281 112.613 0.848803 112.596C0.874795 112.579 0.901228 112.562 0.928106 112.546C0.954885 112.53 0.982065 112.514 1.00963 112.499C1.03721 112.484 1.06514 112.47 1.09342 112.457C1.1216 112.443 1.15014 112.431 1.17903 112.419C1.20792 112.407 1.23707 112.395 1.26649 112.385C1.29591 112.374 1.32559 112.364 1.35554 112.355C1.38548 112.346 1.4156 112.338 1.44589 112.33C1.47619 112.322 1.50667 112.316 1.53731 112.31C1.56796 112.303 1.59873 112.298 1.62965 112.293C1.66064 112.289 1.69168 112.285 1.72277 112.282C1.75386 112.279 1.78503 112.276 1.81629 112.275C1.84746 112.273 1.87868 112.273 1.90995 112.273H27.3978V98.8955C20.9911 97.9652 16.0699 92.4246 16.0699 85.727V85.6561C16.0699 84.2692 17.1881 83.1452 18.568 83.1452H18.659C18.6585 83.1011 18.6582 83.0569 18.6582 83.0128V55.2095H18.568C17.1881 55.2095 16.0699 54.0855 16.0699 52.6986V52.6277C16.0699 45.9302 20.9911 40.3895 27.3978 39.4592V1.91975C27.3978 0.859359 28.2528 0 29.3077 0ZM40.1918 83.1492H43.9947C44.0766 83.1492 44.1585 83.1472 44.2402 83.1432C44.3221 83.1392 44.4036 83.1332 44.4853 83.1252C44.5668 83.1169 44.6481 83.1069 44.729 83.0949C44.8101 83.0826 44.8906 83.0688 44.9711 83.0527C45.0514 83.0366 45.1313 83.0186 45.2108 82.9985C45.2903 82.9784 45.3692 82.9566 45.4475 82.9327C45.5261 82.9088 45.6038 82.8829 45.6809 82.8552C45.758 82.8275 45.8345 82.7978 45.9102 82.7663C45.9859 82.7348 46.0606 82.7015 46.1347 82.6661C46.2086 82.631 46.2819 82.5941 46.354 82.5553C46.4264 82.5164 46.4977 82.4759 46.568 82.4335C46.6381 82.3912 46.7074 82.3472 46.7755 82.3014C46.8436 82.2557 46.9106 82.2083 46.9765 82.1593C47.0422 82.1102 47.1067 82.0596 47.17 82.0072C47.2334 81.955 47.2953 81.9012 47.356 81.846C47.4167 81.7906 47.4761 81.7339 47.534 81.6758C47.5919 81.6174 47.6485 81.5578 47.7034 81.497C47.7583 81.436 47.8119 81.3736 47.8638 81.3099C47.9157 81.2463 47.9663 81.1815 48.015 81.1152C48.0637 81.049 48.1109 80.9818 48.1564 80.9133C48.202 80.8449 48.2458 80.7754 48.2879 80.7048C48.33 80.6341 48.3704 80.5625 48.4089 80.4898C48.4477 80.4172 48.4844 80.3437 48.5194 80.2692C48.5543 80.195 48.5875 80.1197 48.6189 80.0436C48.6502 79.9676 48.6798 79.8907 48.7074 79.8132C48.7349 79.7355 48.7607 79.6575 48.7845 79.5788C48.8082 79.4999 48.83 79.4206 48.85 79.3407C48.87 79.2609 48.8879 79.1806 48.9039 79.0997C48.9199 79.019 48.9339 78.9379 48.9459 78.8564C48.9579 78.7751 48.9678 78.6932 48.9758 78.6113C48.9838 78.5295 48.9898 78.4474 48.994 78.3651C48.998 78.2828 49 78.2007 49 78.1182V60.2456C49 60.1633 48.998 60.081 48.994 59.9989C48.9898 59.9166 48.9838 59.8345 48.9758 59.7526C48.9678 59.6705 48.9579 59.5888 48.9459 59.5076C48.9339 59.4261 48.9199 59.345 48.9039 59.2641C48.8879 59.1834 48.87 59.1031 48.85 59.0232C48.83 58.9434 48.8082 58.8641 48.7845 58.7852C48.7608 58.7064 48.7351 58.6282 48.7074 58.5508C48.6798 58.4733 48.6502 58.3964 48.6189 58.3203C48.5875 58.2443 48.5543 58.169 48.5194 58.0945C48.4844 58.0201 48.4477 57.9466 48.4089 57.874C48.3704 57.8015 48.33 57.7299 48.2879 57.6592C48.2457 57.5885 48.202 57.5189 48.1564 57.4507C48.1109 57.382 48.0637 57.3148 48.015 57.2487C47.9663 57.1825 47.9157 57.1177 47.8638 57.0539C47.8119 56.9902 47.7583 56.928 47.7034 56.867C47.6485 56.806 47.5919 56.7464 47.534 56.6882C47.4761 56.6299 47.4167 56.5731 47.356 56.5178C47.2953 56.4626 47.2334 56.4088 47.17 56.3566C47.1067 56.3044 47.0422 56.2536 46.9765 56.2046C46.9106 56.1557 46.8436 56.1083 46.7755 56.0625C46.7074 56.0168 46.6381 55.9726 46.568 55.9305C46.4977 55.8881 46.4264 55.8474 46.354 55.8086C46.2819 55.7698 46.2088 55.7328 46.1347 55.6976C46.0606 55.6625 45.9859 55.629 45.9102 55.5975C45.8345 55.566 45.758 55.5365 45.6809 55.5088C45.6038 55.4809 45.5261 55.4552 45.4475 55.4313C45.3692 55.4074 45.2903 55.3853 45.2108 55.3653C45.1313 55.3454 45.0514 55.3273 44.9711 55.3113C44.8906 55.2952 44.8101 55.2812 44.729 55.2691C44.6481 55.2571 44.5668 55.2468 44.4853 55.2388C44.4036 55.2308 44.3221 55.2248 44.2402 55.2205C44.1585 55.2165 44.0766 55.2145 43.9947 55.2145H39.3844C39.4663 55.2145 39.5482 55.2165 39.6301 55.2205C39.7118 55.2248 39.7935 55.2308 39.8752 55.2388C39.9565 55.2468 40.0378 55.2571 40.1189 55.2691C40.1998 55.2812 40.2805 55.2952 40.3608 55.3113C40.4413 55.3273 40.5212 55.3454 40.6007 55.3653C40.68 55.3853 40.7591 55.4074 40.8374 55.4313C40.9157 55.4552 40.9936 55.4809 41.0707 55.5088C41.1478 55.5365 41.2241 55.566 41.2998 55.5975C41.3755 55.629 41.4504 55.6625 41.5246 55.6976C41.5985 55.7328 41.6716 55.7698 41.7439 55.8086C41.8162 55.8474 41.8875 55.8881 41.9576 55.9305C42.0279 55.9726 42.0973 56.0168 42.1654 56.0625C42.2333 56.1083 42.3004 56.1557 42.3661 56.2046C42.4318 56.2538 42.4966 56.3044 42.5599 56.3566C42.6232 56.4088 42.6851 56.4626 42.7459 56.5178C42.8064 56.5731 42.8657 56.6299 42.9238 56.6882C42.9818 56.7464 43.0381 56.806 43.0932 56.867C43.1482 56.928 43.2017 56.9904 43.2536 57.0541C43.3056 57.1177 43.3559 57.1825 43.4048 57.2487C43.4536 57.3148 43.5007 57.382 43.5463 57.4507C43.5918 57.5189 43.6356 57.5885 43.6777 57.6592C43.7199 57.7299 43.7602 57.8015 43.7988 57.874C43.8373 57.9466 43.8743 58.0201 43.9092 58.0945C43.9442 58.169 43.9773 58.2443 44.0087 58.3203C44.0401 58.3964 44.0696 58.4733 44.0972 58.5508C44.1248 58.6282 44.1505 58.7064 44.1743 58.7852C44.1981 58.8641 44.2199 58.9434 44.2398 59.0232C44.2596 59.1031 44.2776 59.1834 44.2936 59.2641C44.3095 59.345 44.3235 59.4261 44.3357 59.5076C44.3477 59.5888 44.3577 59.6705 44.3657 59.7526C44.3737 59.8345 44.3797 59.9166 44.3836 59.9989C44.3878 60.081 44.3898 60.1633 44.3898 60.2456V78.1182C44.3898 78.2007 44.3878 78.2828 44.3836 78.3651C44.3797 78.4474 44.3737 78.5295 44.3657 78.6113C44.3577 78.6932 44.3477 78.7751 44.3357 78.8564C44.3235 78.9379 44.3095 79.019 44.2936 79.0997C44.2776 79.1806 44.2596 79.2609 44.2398 79.3407C44.2199 79.4206 44.1981 79.4999 44.1743 79.5788C44.1505 79.6575 44.1248 79.7355 44.0972 79.8132C44.0696 79.8907 44.0401 79.9676 44.0087 80.0436C43.9773 80.1197 43.9442 80.195 43.9092 80.2692C43.8743 80.3437 43.8373 80.4172 43.7988 80.4898C43.7602 80.5625 43.7199 80.6341 43.6777 80.7048C43.6356 80.7754 43.5918 80.8449 43.5463 80.9133C43.5007 80.9818 43.4536 81.049 43.4048 81.1152C43.3559 81.1815 43.3056 81.2463 43.2536 81.3099C43.2017 81.3736 43.1482 81.436 43.0932 81.497C43.0381 81.5578 42.9818 81.6174 42.9238 81.6758C42.8657 81.7338 42.8064 81.7906 42.7459 81.846C42.6851 81.9012 42.6232 81.955 42.5599 82.0072C42.4966 82.0596 42.4318 82.1102 42.3661 82.1593C42.3004 82.2083 42.2333 82.2557 42.1654 82.3014C42.0973 82.3472 42.0279 82.3912 41.9576 82.4335C41.8875 82.4759 41.8162 82.5164 41.7439 82.5553C41.6716 82.5941 41.5985 82.631 41.5246 82.6661C41.4504 82.7015 41.3755 82.7348 41.2998 82.7663C41.2241 82.7978 41.1478 82.8275 41.0707 82.8552C40.9936 82.8829 40.9157 82.9088 40.8374 82.9327C40.7591 82.9566 40.68 82.9784 40.6007 82.9985C40.5212 83.0186 40.4413 83.0366 40.3608 83.0527C40.2805 83.0688 40.1998 83.0826 40.1189 83.0949C40.0378 83.1069 39.9565 83.1169 39.8752 83.1252C39.7935 83.1332 39.7118 83.1392 39.6301 83.1432C39.6155 83.144 39.6007 83.1446 39.5861 83.1452H40.0476C40.0959 83.1452 40.144 83.1466 40.1918 83.1492Z" fill="white"/>
<path d="M1.89768 112.298C2.94587 112.298 3.79535 113.152 3.79535 114.205V122.093C3.79535 123.146 2.94587 124 1.89768 124C0.849476 124 0 123.146 0 122.093V114.205C0 113.152 0.849476 112.298 1.89768 112.298Z" fill="white"/>
</g>
</svg>
