<svg width="128" height="40" viewBox="0 0 128 40" fill="none" xmlns="http://www.w3.org/2000/svg">
<g clip-path="url(#clip0_5_123)">
<path d="M66.968 12.6836V29.5684H64.784V16.978L59.264 29.5684H57.728L52.184 16.9536V29.5684H50V12.6836H52.352L58.496 26.6404L64.64 12.6836H66.968ZM69.8559 22.834C69.8559 21.4676 70.1279 20.272 70.6719 19.2472C71.2159 18.2061 71.9599 17.4009 72.9039 16.8316C73.8639 16.2623 74.9279 15.9776 76.0959 15.9776C77.2479 15.9776 78.2479 16.2297 79.0959 16.734C79.9439 17.2383 80.5759 17.8727 80.9919 18.6372V16.1972H83.1999V29.5684H80.9919V27.0796C80.5599 27.8604 79.9119 28.5111 79.0479 29.0316C78.1999 29.5359 77.2079 29.788 76.0719 29.788C74.9039 29.788 73.8479 29.4952 72.9039 28.9096C71.9599 28.324 71.2159 27.5025 70.6719 26.4452C70.1279 25.3879 69.8559 24.1841 69.8559 22.834ZM80.9919 22.8584C80.9919 21.8499 80.7919 20.9715 80.3919 20.2232C79.9919 19.4749 79.4479 18.9056 78.7599 18.5152C78.0879 18.1085 77.3439 17.9052 76.5279 17.9052C75.7119 17.9052 74.9679 18.1004 74.2959 18.4908C73.6239 18.8812 73.0879 19.4505 72.6879 20.1988C72.2879 20.9471 72.0879 21.8255 72.0879 22.834C72.0879 23.8588 72.2879 24.7535 72.6879 25.518C73.0879 26.2663 73.6239 26.8437 74.2959 27.2504C74.9679 27.6408 75.7119 27.836 76.5279 27.836C77.3439 27.836 78.0879 27.6408 78.7599 27.2504C79.4479 26.8437 79.9919 26.2663 80.3919 25.518C80.7919 24.7535 80.9919 23.8669 80.9919 22.8584ZM89.5546 18.0272V25.9084C89.5546 26.5591 89.6906 27.0227 89.9626 27.2992C90.2346 27.5595 90.7066 27.6896 91.3786 27.6896H92.9866V29.5684H91.0186C89.8026 29.5684 88.8906 29.2837 88.2826 28.7144C87.6746 28.1451 87.3706 27.2097 87.3706 25.9084V18.0272H85.6666V16.1972H87.3706V12.83H89.5546V16.1972H92.9866V18.0272H89.5546ZM107.633 22.3704C107.633 22.7933 107.609 23.2407 107.561 23.7124H97.0488C97.1288 25.03 97.5688 26.0629 98.3688 26.8112C99.1848 27.5432 100.169 27.9092 101.321 27.9092C102.265 27.9092 103.049 27.6896 103.673 27.2504C104.313 26.7949 104.761 26.1931 105.017 25.4448H107.369C107.017 26.7299 106.313 27.7791 105.257 28.5924C104.201 29.3895 102.889 29.788 101.321 29.788C100.073 29.788 98.9528 29.5033 97.9608 28.934C96.9848 28.3647 96.2168 27.5595 95.6568 26.5184C95.0968 25.4611 94.8168 24.2411 94.8168 22.8584C94.8168 21.4757 95.0888 20.2639 95.6328 19.2228C96.1768 18.1817 96.9368 17.3847 97.9128 16.8316C98.9048 16.2623 100.041 15.9776 101.321 15.9776C102.569 15.9776 103.673 16.2541 104.633 16.8072C105.593 17.3603 106.329 18.1248 106.841 19.1008C107.369 20.0605 107.633 21.1504 107.633 22.3704ZM105.377 21.9068C105.377 21.0609 105.193 20.3371 104.825 19.7352C104.457 19.1171 103.953 18.6535 103.313 18.3444C102.689 18.0191 101.993 17.8564 101.225 17.8564C100.121 17.8564 99.1768 18.2143 98.3928 18.93C97.6248 19.6457 97.1848 20.638 97.0728 21.9068H105.377ZM112.7 18.3688C113.084 17.6043 113.628 17.0105 114.332 16.5876C115.052 16.1647 115.924 15.9532 116.948 15.9532V18.2468H116.372C113.924 18.2468 112.7 19.5969 112.7 22.2972V29.5684H110.516V16.1972H112.7V18.3688ZM120.597 14.0256C120.181 14.0256 119.829 13.8792 119.541 13.5864C119.253 13.2936 119.109 12.9357 119.109 12.5128C119.109 12.0899 119.253 11.732 119.541 11.4392C119.829 11.1464 120.181 11 120.597 11C120.997 11 121.333 11.1464 121.605 11.4392C121.893 11.732 122.037 12.0899 122.037 12.5128C122.037 12.9357 121.893 13.2936 121.605 13.5864C121.333 13.8792 120.997 14.0256 120.597 14.0256ZM121.653 16.1972V29.5684H119.469V16.1972H121.653Z" fill="white"/>
<path d="M0 0V39.65H34.125V19.825H14.625V0H0ZM19.5 0V14.8687H34.125L19.5 0Z" fill="white"/>
</g>
<defs>
<clipPath id="clip0_5_123">
<rect width="128" height="39.65" fill="white"/>
</clipPath>
</defs>
</svg>
